<svg width="40" height="40" viewBox="0 0 40 40" fill="none" xmlns="http://www.w3.org/2000/svg">
<circle cx="20" cy="20" r="16" fill="white"/>
<path d="M20 0C14.6957 0 9.60859 2.10714 5.85787 5.85787C2.10714 9.60859 0 14.6957 0 20V20C0 25.3043 2.10714 30.3914 5.85787 34.1421C9.60859 37.8929 14.6957 40 20 40V40C25.3043 40 30.3914 37.8929 34.1421 34.1421C37.8929 30.3914 40 25.3043 40 20V20C40 14.6957 37.8929 9.60859 34.1421 5.85787C30.3914 2.10714 25.3043 0 20 0V0ZM25.5895 12.1579H22.9474C22.0211 12.1579 21.821 12.5474 21.821 13.5053V15.8316H25.5895L25.2316 19.9263H21.821V32.0947H16.9474V19.979H14.4105V15.8316H16.9474V12.579C16.9474 9.5158 18.5895 7.91579 22.2105 7.91579H25.5895V12.1579Z" fill="#32E0B4"/>
</svg>
