<svg width="59" height="17" viewBox="0 0 59 17" fill="none" xmlns="http://www.w3.org/2000/svg">
<path d="M-0.000426583 8.80966L34.5996 8.80986L42.0996 16.2699L50.0996 8.26985L41.9996 0.169844L34.5396 7.61986L0.0395515 7.61965L-0.000426583 8.80966ZM41.9596 2.42985L47.7896 8.25984L42.0596 13.9999L36.8696 8.80986L43.4496 8.80986L43.4496 7.60985L36.7696 7.60985L41.9596 2.42985Z" fill="#32E0B4"/>
<path d="M48.9596 1.15984L41.9596 8.15984L49.0996 15.2699L30.7795 15.2696L30.7795 16.3596L50.1796 16.3598L58.3096 8.22984L50.0796 -0.000138049L30.6396 -0.00034002L30.6396 1.15963L48.9596 1.15984ZM50.0996 2.35985L56.0296 8.27986L50.1996 14.1098L44.2796 8.17986L50.0996 2.35985Z" fill="#32E0B4"/>
<path d="M19.3196 16.3896L25.0796 16.3896L25.0796 15.2596L19.3196 15.2596L19.3196 16.3896Z" fill="#32E0B4"/>
<path d="M19.3096 1.15965L25.0696 1.15965L25.0696 0.0296449L19.3096 0.0296444L19.3096 1.15965Z" fill="#32E0B4"/>
</svg>
