<svg width="59" height="17" viewBox="0 0 59 17" fill="none" xmlns="http://www.w3.org/2000/svg">
<path d="M58.31 7.57999L23.71 7.57979L16.21 0.119796L8.20999 8.1198L16.31 16.2198L23.77 8.76979L58.27 8.76999L58.31 7.57999ZM16.35 13.9598L10.52 8.12981L16.25 2.38979L21.44 7.57979H14.86V8.7798H21.54L16.35 13.9598Z" fill="#32E0B4"/>
<path d="M9.35001 15.2298L16.35 8.22981L9.20999 1.1198L27.53 1.12V0.03L8.13 0.0297997L0 8.1598L8.22998 16.3898L27.67 16.39V15.23L9.35001 15.2298ZM8.20999 14.0298L2.28 8.10979L8.10999 2.2798L14.03 8.20979L8.20999 14.0298Z" fill="#32E0B4"/>
<path d="M38.99 0H33.23V1.13H38.99V0Z" fill="#32E0B4"/>
<path d="M39 15.23H33.24V16.36H39V15.23Z" fill="#32E0B4"/>
</svg>
