<svg width="58" height="30" viewBox="0 0 58 30" fill="none" xmlns="http://www.w3.org/2000/svg">
<path d="M9.61208 28.7213C10.1735 29.5227 11.0906 30 12.0692 30L51.8222 30C54.2926 30 55.7042 27.1813 54.2246 25.2031L47.937 16.7969C47.1401 15.7315 47.1401 14.2685 47.937 13.2031L54.2246 4.79688C55.7042 2.81868 54.2926 3.8147e-06 51.8222 3.8147e-06L12.0692 3.8147e-06C11.0906 3.8147e-06 10.1735 0.477274 9.61208 1.27875L1.20578 13.2787C0.481901 14.3121 0.4819 15.6879 1.20578 16.7213L9.61208 28.7213Z" fill="#32E0B4"/>
<path fill-rule="evenodd" clip-rule="evenodd" d="M18.372 14.3501C17.777 14.9451 17.777 15.9096 18.372 16.5046C18.375 16.5076 18.378 16.5106 18.381 16.5136L25.9127 24.0452C26.5076 24.6402 27.4722 24.6402 28.0672 24.0452C28.6621 23.4503 28.6621 22.4857 28.0672 21.8907L21.6037 15.4273L28.0671 8.96395C28.662 8.36901 28.662 7.40443 28.0671 6.80949C27.4721 6.21455 26.5076 6.21455 25.9126 6.80949L18.372 14.3501Z" fill="white" fill-opacity="0.8"/>
<path fill-rule="evenodd" clip-rule="evenodd" d="M29.2386 15.4275L33.9412 20.1302C34.3741 20.563 34.3741 21.2649 33.9412 21.6977C33.5083 22.1306 32.8065 22.1306 32.3736 21.6977L26.8872 16.2113C26.4543 15.7784 26.4543 15.0766 26.8872 14.6437C26.8908 14.64 26.8945 14.6364 26.8983 14.6327L32.3738 9.15717C32.8067 8.7243 33.5085 8.7243 33.9414 9.15717C34.3743 9.59004 34.3743 10.2919 33.9414 10.7247L29.2386 15.4275Z" fill="white" fill-opacity="0.8"/>
</svg>
