<svg width="58" height="30" viewBox="0 0 58 30" fill="none" xmlns="http://www.w3.org/2000/svg">
<path d="M48.2004 1.27875C47.639 0.477273 46.7219 9.69571e-07 45.7433 1.05512e-06L5.99026 4.53044e-06C3.51992 4.74641e-06 2.10828 2.81868 3.58791 4.79688L9.87552 13.2031C10.6724 14.2685 10.6724 15.7315 9.87552 16.7969L3.58792 25.2031C2.10829 27.1813 3.51992 30 5.99026 30L45.7433 30C46.7219 30 47.639 29.5227 48.2004 28.7213L56.6067 16.7213C57.3306 15.6879 57.3306 14.3121 56.6067 13.2787L48.2004 1.27875Z" fill="#32E0B4"/>
<path fill-rule="evenodd" clip-rule="evenodd" d="M39.4405 15.6499C40.0355 15.0549 40.0355 14.0904 39.4405 13.4954C39.4375 13.4924 39.4345 13.4894 39.4315 13.4864L31.8998 5.95479C31.3049 5.35985 30.3403 5.35985 29.7453 5.95479C29.1504 6.54973 29.1504 7.51432 29.7453 8.10925L36.2088 14.5727L29.7454 21.036C29.1505 21.631 29.1505 22.5956 29.7454 23.1905C30.3404 23.7855 31.3049 23.7855 31.8999 23.1905L39.4405 15.6499Z" fill="white" fill-opacity="0.8"/>
<path fill-rule="evenodd" clip-rule="evenodd" d="M28.5739 14.5725L23.8713 9.86983C23.4384 9.43696 23.4384 8.73513 23.8713 8.30226C24.3042 7.86939 25.006 7.86939 25.4389 8.30226L30.9253 13.7887C31.3582 14.2216 31.3582 14.9234 30.9253 15.3563C30.9217 15.36 30.918 15.3636 30.9142 15.3673L25.4387 20.8428C25.0058 21.2757 24.304 21.2757 23.8711 20.8428C23.4382 20.41 23.4382 19.7081 23.8711 19.2753L28.5739 14.5725Z" fill="white" fill-opacity="0.8"/>
</svg>
