<svg width="40" height="40" viewBox="0 0 40 40" fill="none" xmlns="http://www.w3.org/2000/svg">
<circle cx="20" cy="20" r="16" fill="white"/>
<path d="M28.5129 13.5368C28.3383 13.0595 28.0581 12.628 27.6931 12.2746C27.3391 11.9105 26.9082 11.6301 26.4319 11.4542C25.7779 11.2162 25.0889 11.0883 24.3931 11.0755C23.237 11.0755 22.8902 11.0124 19.9685 11.0124C17.0468 11.0124 16.6894 11.0124 15.5334 11.0755C14.8375 11.0883 14.1486 11.2162 13.4945 11.4542C13.0208 11.6353 12.591 11.9149 12.2333 12.2746C11.8716 12.6307 11.5919 13.0614 11.4136 13.5368C11.1758 14.1914 11.0479 14.8808 11.0352 15.5772C11.0352 16.7342 10.9722 17.0813 10.9722 20.0158C10.9722 22.9503 10.9722 23.2869 11.0352 24.4439C11.0479 25.1403 11.1758 25.8298 11.4136 26.4844C11.5919 26.9598 11.8716 27.3905 12.2333 27.7465C12.591 28.1062 13.0208 28.3858 13.4945 28.5669C14.1486 28.8049 14.8375 28.9328 15.5334 28.9456C16.6894 28.9982 17.0363 29.0087 19.9685 29.0087C22.9007 29.0087 23.237 29.0087 24.3931 28.9456C25.0889 28.9328 25.7779 28.8049 26.4319 28.5669C26.9082 28.391 27.3391 28.1107 27.6931 27.7465C28.0581 27.3932 28.3383 26.9617 28.5129 26.4844C28.7506 25.8298 28.8785 25.1403 28.8912 24.4439C28.8912 23.2869 28.9543 22.9398 28.9543 20.0158C28.9543 17.0918 28.9543 16.7342 28.8912 15.5772C28.8785 14.8808 28.7506 14.1914 28.5129 13.5368ZM19.9685 25.643C18.8534 25.645 17.7629 25.3159 16.8349 24.6972C15.9069 24.0785 15.1832 23.1982 14.7556 22.1676C14.3279 21.137 14.2155 20.0026 14.4325 18.908C14.6495 17.8135 15.1862 16.808 15.9747 16.0189C16.7631 15.2298 17.7679 14.6927 18.8616 14.4755C19.9553 14.2583 21.0888 14.3708 22.1186 14.7988C23.1483 15.2268 24.028 15.9511 24.6462 16.8798C25.2644 17.8085 25.5932 18.8999 25.5912 20.0158C25.5912 21.5082 24.9988 22.9395 23.9443 23.9948C22.8899 25.0501 21.4597 25.643 19.9685 25.643ZM25.8224 15.4721C25.5592 15.4698 25.3026 15.3892 25.0854 15.2403C24.8682 15.0915 24.7003 14.8813 24.603 14.6365C24.5058 14.3917 24.4836 14.1235 24.5394 13.866C24.5952 13.6086 24.7264 13.3736 24.9162 13.1911C25.106 13.0086 25.3459 12.8869 25.6051 12.8414C25.8644 12.796 26.1313 12.8289 26.3718 12.936C26.6123 13.0431 26.8155 13.2195 26.9553 13.4426C27.0952 13.6658 27.1655 13.9256 27.1571 14.1889C27.1488 14.5357 27.0039 14.8653 26.7539 15.1056C26.5039 15.346 26.169 15.4777 25.8224 15.4721Z" fill="#32E0B4"/>
<path d="M19.9685 16.3556C19.2447 16.3535 18.5365 16.5664 17.9337 16.9673C17.3308 17.3682 16.8604 17.9392 16.582 18.6078C16.3036 19.2764 16.2296 20.0127 16.3696 20.7234C16.5095 21.4342 16.857 22.0873 17.3681 22.6003C17.8792 23.1132 18.5308 23.4629 19.2406 23.605C19.9503 23.747 20.6862 23.6752 21.3551 23.3985C22.024 23.1217 22.5959 22.6526 22.9982 22.0505C23.4006 21.4483 23.6153 20.7402 23.6153 20.0158C23.6153 19.0469 23.2315 18.1175 22.5478 17.4313C21.8642 16.7452 20.9366 16.3584 19.9685 16.3556Z" fill="#32E0B4"/>
<path d="M19.9685 9.96532e-05C14.6725 9.96532e-05 9.59345 2.10557 5.84863 5.85333C2.10382 9.60109 0 14.6841 0 19.9843C0 25.2928 2.10714 30.3839 5.85787 34.1375C9.6086 37.8912 14.6957 40 20 40C25.3043 40 30.3914 37.8912 34.1421 34.1375C37.8929 30.3839 40 25.2928 40 19.9843C40 17.3546 39.4814 14.7508 38.474 12.3221C37.4665 9.89335 35.99 7.6875 34.1291 5.83097C32.2682 3.97444 30.0594 2.50373 27.6294 1.50315C25.1995 0.502573 22.5961 -0.00820459 19.9685 9.96532e-05ZM30.867 24.5386C30.8492 25.4486 30.675 26.3487 30.3521 27.1996C30.0726 27.9149 29.6482 28.5645 29.1055 29.1075C28.5629 29.6506 27.9138 30.0753 27.1992 30.355C26.3489 30.6782 25.4495 30.8526 24.5402 30.8704C23.3736 30.923 22.9953 30.9335 20.021 30.9335C17.0468 30.9335 16.6684 30.9335 15.4913 30.8704C14.5821 30.8515 13.6828 30.6772 12.8324 30.355C12.1177 30.0753 11.4686 29.6506 10.926 29.1075C10.3834 28.5645 9.95893 27.9149 9.67945 27.1996C9.36155 26.3473 9.18752 25.448 9.16448 24.5386C9.11193 23.3605 9.10142 22.9924 9.10142 20.0158C9.10142 17.0392 9.10142 16.6606 9.16448 15.4826C9.18752 14.5731 9.36155 13.6738 9.67945 12.8215C9.95362 12.0889 10.384 11.4249 10.9406 10.8757C11.4913 10.321 12.1543 9.89061 12.8849 9.61354C13.7354 9.29132 14.6347 9.11702 15.5439 9.09817C16.721 9.09817 17.0888 9.03506 20.0736 9.03506C23.0583 9.03506 23.4262 9.03506 24.5927 9.09817C25.502 9.11598 26.4015 9.29031 27.2517 9.61354C27.9837 9.88793 28.6472 10.3187 29.196 10.8757C29.7559 11.4223 30.1867 12.0871 30.4572 12.8215C30.7801 13.6724 30.9544 14.5726 30.9722 15.4826C31.0247 16.6606 31.0352 17.0287 31.0352 20.0158C31.0352 23.0029 30.9196 23.3605 30.867 24.5386Z" fill="#32E0B4"/>
</svg>
