<svg width="193" height="10" viewBox="0 0 193 10" fill="none" xmlns="http://www.w3.org/2000/svg">
<path d="M96.9814 -2.40307e-05L100.142 3.23844L97.022 6.43872L93.8615 3.20026L96.9814 -2.40307e-05ZM99.0884 3.23844L96.9814 1.07946L94.915 3.20026L97.022 5.35576L99.0884 3.23844Z" fill="#1EE6DA"/>
<path d="M90.2234 2.26655L97.1169 9.33008L96.5918 9.87156L90.2234 3.34604L83.9498 9.77437L83.4214 9.23636L90.2234 2.26655Z" fill="#1EE6DA"/>
<path d="M103.39 2.26655L110.287 9.33008L109.759 9.87156L103.39 3.34604L97.1169 9.77437L96.5918 9.23636L103.39 2.26655Z" fill="#1EE6DA"/>
<path d="M96.9983 2.51299L103.773 9.45503L103.485 9.75007L96.9983 3.0996L90.6028 9.65288L90.3182 9.35785L96.9983 2.51299Z" fill="#1EE6DA"/>
<path d="M102.815 6.53591L147.946 6.5359L147.946 6.11938L102.815 6.11938L102.815 6.53591Z" fill="#1EE6DA"/>
<path d="M149.978 6.5359L153 6.5359L153 6.11938L149.978 6.11938L149.978 6.5359Z" fill="#1EE6DA"/>
<path d="M46.0541 6.74417L91.1854 6.74417L91.1854 6.32765L46.0541 6.32765L46.0541 6.74417Z" fill="#1EE6DA"/>
<path d="M41 6.74417L44.0216 6.74417L44.0216 6.32765L41 6.32765L41 6.74417Z" fill="#1EE6DA"/>
<path d="M0.5 9.99999L193 10L193 9.23638L0.5 9.23636L0.5 9.99999Z" fill="#1EE6DA"/>
</svg>
