<svg width="21" height="9" viewBox="0 0 21 9" fill="none" xmlns="http://www.w3.org/2000/svg">
<g opacity="0.15">
<path d="M18.8677 4.16229L12.7669 4.16218L8.72846 0.0657819L4.42076 4.45871L8.78231 8.90655L12.7992 4.81563L18.8462 4.81574L18.8677 4.16229ZM8.80385 7.66554L5.66461 4.4642L8.75 1.31227L11.5446 4.16218H8.00153V4.82113H11.5985L8.80385 7.66554Z" fill="#1EE6DA"/>
<path d="M5.03462 8.36293L8.80385 4.51912L4.95923 0.614898L14.8239 0.615008V0.0164735L4.3777 0.0163635L0 4.48068L4.43153 8.99989L14.8992 9V8.36304L5.03462 8.36293ZM4.42076 7.70398L1.22769 4.45321L4.36692 1.25187L7.55462 4.50813L4.42076 7.70398Z" fill="#1EE6DA"/>
<path d="M20.9946 0H17.8931V0.620501H20.9946V0Z" fill="#1EE6DA"/>
<path d="M21 8.36303H17.8985V8.98353H21V8.36303Z" fill="#1EE6DA"/>
</g>
</svg>
