<svg width="21" height="9" viewBox="0 0 21 9" fill="none" xmlns="http://www.w3.org/2000/svg">
<g opacity="0.15">
<path d="M2.13232 4.83771L8.23308 4.83782L12.2715 8.93422L16.5792 4.54129L12.2177 0.0934511L8.20077 4.18437L2.15384 4.18426L2.13232 4.83771ZM12.1961 1.33446L15.3354 4.5358L12.25 7.68773L9.45538 4.83782L12.9985 4.83782L12.9985 4.17887L9.40155 4.17887L12.1961 1.33446Z" fill="#1EE6DA"/>
<path d="M15.9654 0.637071L12.1961 4.48088L16.0408 8.3851L6.17614 8.38499L6.17614 8.98353L16.6223 8.98364L21 4.51932L16.5685 0.000110441L6.10078 1.38388e-06L6.10078 0.636961L15.9654 0.637071ZM16.5792 1.29602L19.7723 4.54679L16.6331 7.74813L13.4454 4.49187L16.5792 1.29602Z" fill="#1EE6DA"/>
<path d="M0.00538058 9L3.10692 9L3.10692 8.3795L0.00538053 8.3795L0.00538058 9Z" fill="#1EE6DA"/>
<path d="M-1.804e-06 0.636969L3.10153 0.636969L3.10153 0.0164671L-1.85825e-06 0.0164674L-1.804e-06 0.636969Z" fill="#1EE6DA"/>
</g>
</svg>
