<svg width="38" height="17" viewBox="0 0 38 17" fill="none" xmlns="http://www.w3.org/2000/svg">
<path d="M34.039 8.80966L23.71 8.80963L16.21 16.2696L8.20999 8.26962L16.31 0.169617L23.77 7.61963L33.999 7.61966L34.039 8.80966ZM16.35 2.42963L10.52 8.25961L16.25 13.9996L21.44 8.80963H14.86V7.60962H21.54L16.35 2.42963Z" fill="#A0FEE6"/>
<path d="M9.35001 1.15961L16.35 8.15961L9.20999 15.2696L26.259 15.2697V16.3596L8.13 16.3596L0 8.22961L8.22998 -0.000366211L26.399 -0.000337601V1.15964L9.35001 1.15961ZM8.20999 2.35962L2.28 8.27963L8.10999 14.1096L14.03 8.17963L8.20999 2.35962Z" fill="#A0FEE6"/>
<path d="M37.719 16.3896H31.959V15.2596H37.719V16.3896Z" fill="#A0FEE6"/>
<path d="M37.729 1.15965H31.969V0.0296478H37.729V1.15965Z" fill="#A0FEE6"/>
</svg>
