<svg width="38" height="17" viewBox="0 0 38 17" fill="none" xmlns="http://www.w3.org/2000/svg">
<path d="M3.69049 7.57999L14.0195 7.58002L21.5195 0.120024L29.5195 8.12002L21.4195 16.22L13.9595 8.77002L3.73047 8.76999L3.69049 7.57999ZM21.3795 13.96L27.2095 8.13003L21.4795 2.39001L16.2895 7.58002L22.8695 7.58002L22.8695 8.78003L16.1895 8.78003L21.3795 13.96Z" fill="#A0FEE6"/>
<path d="M28.3795 15.23L21.3795 8.23004L28.5195 1.12002L11.4705 1.11999L11.4705 0.0299977L29.5995 0.0300286L37.7295 8.16003L29.4995 16.39L11.3305 16.39L11.3305 15.23L28.3795 15.23ZM29.5195 14.03L35.4495 8.11002L29.6195 2.28003L23.6995 8.21002L29.5195 14.03Z" fill="#A0FEE6"/>
<path d="M0.0104828 -3.2975e-06L5.77048 -2.79395e-06L5.77048 1.13L0.0104827 1.13L0.0104828 -3.2975e-06Z" fill="#A0FEE6"/>
<path d="M0.00048695 15.23L5.76048 15.23L5.76048 16.36L0.000486851 16.36L0.00048695 15.23Z" fill="#A0FEE6"/>
</svg>
