<svg width="40" height="40" viewBox="0 0 40 40" fill="none" xmlns="http://www.w3.org/2000/svg">
<ellipse cx="19.5152" cy="20" rx="15.5152" ry="16" fill="white"/>
<path d="M19.9685 9.96532e-05C14.6725 9.96532e-05 9.59344 2.10557 5.84863 5.85333C2.10381 9.60109 0 14.6841 0 19.9843C-3.9137e-08 22.6128 0.517313 25.2155 1.52241 27.644C2.5275 30.0724 4.00069 32.2789 5.85786 34.1375C7.71504 35.9962 9.91982 37.4705 12.3463 38.4764C14.7728 39.4823 17.3736 40 20 40C22.6264 40 25.2272 39.4823 27.6537 38.4764C30.0802 37.4705 32.285 35.9962 34.1421 34.1375C35.9993 32.2789 37.4725 30.0724 38.4776 27.644C39.4827 25.2155 40 22.6128 40 19.9843C40 17.3546 39.4814 14.7508 38.474 12.3221C37.4665 9.89335 35.99 7.6875 34.1291 5.83097C32.2682 3.97444 30.0594 2.50373 27.6294 1.50315C25.1995 0.502573 22.5961 -0.00820459 19.9685 9.96532e-05ZM28.4498 15.6614C28.5533 17.9413 28.0288 20.2058 26.9335 22.2076C25.8383 24.2094 24.2144 25.8715 22.2393 27.0124C20.2642 28.1532 18.0138 28.7289 15.7339 28.6766C13.4541 28.6243 11.2324 27.946 9.31161 26.7158C10.4573 26.8545 11.6191 26.7651 12.7301 26.4529C13.8412 26.1406 14.8796 25.6115 15.7856 24.8962C14.8733 24.8814 13.9887 24.58 13.2569 24.0345C12.5251 23.489 11.9832 22.7271 11.7078 21.8565C12.3632 21.9859 13.0397 21.9607 13.6837 21.7829C12.6834 21.5838 11.7845 21.0401 11.1432 20.2465C10.5019 19.4529 10.1587 18.4595 10.1734 17.4389C10.7789 17.7765 11.4564 17.9641 12.1492 17.9859C11.2252 17.3666 10.5718 16.4181 10.3218 15.3337C10.0719 14.2492 10.2443 13.1101 10.804 12.1484C11.9015 13.4988 13.2705 14.6031 14.8222 15.3896C16.374 16.176 18.0736 16.627 19.8108 16.7132C19.5907 15.7745 19.6867 14.7893 20.0837 13.9107C20.4806 13.0322 21.1565 12.3095 22.0062 11.8549C22.8558 11.4004 23.8318 11.2394 24.7822 11.3971C25.7327 11.5548 26.6045 12.0223 27.2622 12.7269C28.2405 12.538 29.179 12.1822 30.0368 11.6751C29.712 12.6893 29.028 13.5496 28.1135 14.0942C28.9803 13.9936 29.827 13.7632 30.6253 13.4105C30.0359 14.2813 29.2998 15.0429 28.4498 15.6614Z" fill="#32E0B4"/>
</svg>
