<svg width="40" height="40" viewBox="0 0 40 40" fill="none" xmlns="http://www.w3.org/2000/svg">
<circle cx="20" cy="20" r="16" fill="white"/>
<path d="M20 0C14.6957 0 9.60859 2.10714 5.85787 5.85787C2.10714 9.60859 0 14.6957 0 20C0 25.3043 2.10714 30.3914 5.85787 34.1421C9.60859 37.8929 14.6957 40 20 40C25.3043 40 30.3914 37.8929 34.1421 34.1421C37.8929 30.3914 40 25.3043 40 20C40 14.6957 37.8929 9.60859 34.1421 5.85787C30.3914 2.10714 25.3043 0 20 0ZM31.7158 25.9579C31.583 26.472 31.3192 26.9429 30.9503 27.3248C30.5813 27.7067 30.1198 27.9864 29.6105 28.1369C27.6947 28.6526 20.0526 28.6526 20.0526 28.6526C20.0526 28.6526 12.4 28.6526 10.4947 28.1369C9.97432 27.995 9.50021 27.7191 9.11971 27.3368C8.73922 26.9544 8.46566 26.479 8.32632 25.9579C7.65268 22.0357 7.65268 18.0274 8.32632 14.1053C8.47222 13.5874 8.748 13.1155 9.12749 12.7341C9.50699 12.3528 9.97762 12.0747 10.4947 11.9263C12.4 11.421 20.0526 11.4211 20.0526 11.4211C20.0526 11.4211 27.6947 11.421 29.6105 11.9263C30.1193 12.0776 30.5804 12.3577 30.9492 12.7395C31.318 13.1212 31.582 13.5916 31.7158 14.1053C32.4035 18.0262 32.4035 22.0369 31.7158 25.9579Z" fill="#32E0B4"/>
<path d="M17.7263 23.6632L24.1158 20.0316L17.7263 16.4V23.6632Z" fill="#32E0B4"/>
</svg>
